/* XPM */
static char * bullet_xpm[] = {
"14 14 2 1",
" 	c None",
".	c #5D7074",
"              ",
"              ",
"              ",
"              ",
"      .       ",
"      ..      ",
"       ..     ",
"        ..    ",
"       ..     ",
"      ..      ",
"      .       ",
"              ",
"              ",
"              "};
