/* XPM */
static char * stick_pressed_xpm[] = {
"16 16 4 1",
" 	c None",
".	c #F82571",
"+	c #222222",
"@	c #FFFFFF",
"................",
"................",
"++++++++++++++++",
"++++++++++++++++",
"++++++++++++++++",
"++++++++++++++++",
"++++++++++++++++",
"+++++@@@@@@+++++",
"+++++@@@@@@+++++",
"++++++++++++++++",
"++++++++++++++++",
"++++++++++++++++",
"++++++++++++++++",
"++++++++++++++++",
"++++++++++++++++",
"++++++++++++++++"};
