/* XPM */
static char * toolbar_xpm[] = {
"77 14 5 1",
" 	c None",
".	c #F92571",
"+	c #A02350",
"@	c #1B211F",
"#	c #222222",
".............................................................................",
"+++++++++++++++++++++++++++++++++++++++++++++++++++++++++++++++++++++++++++++",
"@@@@@@@@@@@@@@@@@@@@@@@@@@@@@@@@@@@@@@@@@@@@@@@@@@@@@@@@@@@@@@@@@@@@@@@@@@@@@",
"#############################################################################",
"#############################################################################",
"#############################################################################",
"#############################################################################",
"#############################################################################",
"#############################################################################",
"#############################################################################",
"#############################################################################",
"#############################################################################",
"#############################################################################",
"#############################################################################"};
